<svg baseProfile="tiny" height="5460" version="1.2" viewBox="0 0 7722 5460" width="7722" xmlns="http://www.w3.org/2000/svg" xmlns:ev="http://www.w3.org/2001/xml-events" xmlns:xlink="http://www.w3.org/1999/xlink"><defs /><text fill="darkgrey" font-size="20" font-weight="bold" text-anchor="middle" x="20.0" y="-15.0">0</text><text fill="darkgrey" font-size="20" font-weight="bold" text-anchor="middle" x="60.0" y="-15.0">1</text><text fill="darkgrey" font-size="20" font-weight="bold" text-anchor="middle" x="100.0" y="-15.0">2</text><text fill="darkgrey" font-size="20" font-weight="bold" text-anchor="middle" x="140.0" y="-15.0">3</text><text fill="darkgrey" font-size="20" font-weight="bold" text-anchor="middle" x="-20.0" y="-55.0">1</text><text fill="darkgrey" font-size="20" font-weight="bold" text-anchor="middle" x="20.0" y="-95.0">2</text><text fill="darkgrey" font-size="20" font-weight="bold" text-anchor="middle" x="-20.0" y="-135.0">3</text><rect fill="none" height="5300" id="border" stroke="black" stroke-width="1" width="7562" x="80" y="80" /><g id="nucleides" transform="translate(140, -40)"><g id="boxes"><g id="section_0" transform="translate(120, 5140)"><g class="element_box STABLE" id="H1" transform="translate(0, -40)"><rect class="box" fill="black" height="40" stroke="black" stroke-width="0" width="40" x="0" y="0" /><g class="nucleide STABLE" id="H1-0" transform="translate(0,10.0)"><rect class="main_decay_mode STABLE" fill="black" height="30.0" stroke="black" stroke-width="0" width="40" x="0" y="0" /><text class="half_life" fill="white" font-size="4" text-anchor="middle" x="20.0" y="4">99.9855</text><rect fill="none" height="30.0" stroke="black" stroke-width="0.2" width="40" x="0" y="0" /></g><text class="name" fill="white" font-size="7" text-anchor="middle" x="20.0" y="8">H 1</text><rect class="border" fill="none" height="40" stroke="black" stroke-width="1" width="40" x="0" y="0" /></g><g class="element_box STABLE" id="H2" transform="translate(40, -40)"><rect class="box" fill="black" height="40" stroke="black" stroke-width="0" width="40" x="0" y="0" /><g class="nucleide STABLE" id="H2-0" transform="translate(0,10.0)"><rect class="main_decay_mode STABLE" fill="black" height="30.0" stroke="black" stroke-width="0" width="40" x="0" y="0" /><text class="half_life" fill="white" font-size="4" text-anchor="middle" x="20.0" y="4">0.0145</text><rect fill="none" height="30.0" stroke="black" stroke-width="0.2" width="40" x="0" y="0" /></g><text class="name" fill="white" font-size="7" text-anchor="middle" x="20.0" y="8">H 2</text><rect class="border" fill="none" height="40" stroke="black" stroke-width="1" width="40" x="0" y="0" /></g><g class="element_box BETA_MINUS" id="H3" transform="translate(80, -40)"><rect class="box" fill="#548088" height="40" stroke="black" stroke-width="0" width="40" x="0" y="0" /><g class="nucleide BETA_MINUS" id="H3-0" transform="translate(0,10.0)"><rect class="main_decay_mode BETA_MINUS" fill="#548088" height="30.0" stroke="black" stroke-width="0" width="40" x="0" y="0" /><text class="half_life" fill="black" font-size="4" text-anchor="middle" x="20.0" y="4">12.32 y</text><rect fill="none" height="30.0" stroke="black" stroke-width="0.2" width="40" x="0" y="0" /></g><text class="name" fill="black" font-size="7" text-anchor="middle" x="20.0" y="8">H 3</text><rect class="border" fill="none" height="40" stroke="black" stroke-width="1" width="40" x="0" y="0" /></g><g class="element_box STABLE" id="He3" transform="translate(40, -80)"><rect class="box" fill="black" height="40" stroke="black" stroke-width="0" width="40" x="0" y="0" /><g class="nucleide STABLE" id="He3-0" transform="translate(0,10.0)"><rect class="main_decay_mode STABLE" fill="black" height="30.0" stroke="black" stroke-width="0" width="40" x="0" y="0" /><text class="half_life" fill="white" font-size="4" text-anchor="middle" x="20.0" y="4">0.0002</text><rect fill="none" height="30.0" stroke="black" stroke-width="0.2" width="40" x="0" y="0" /></g><text class="name" fill="white" font-size="7" text-anchor="middle" x="20.0" y="8">He 3</text><rect class="border" fill="none" height="40" stroke="black" stroke-width="1" width="40" x="0" y="0" /></g><g class="element_box PROTON" id="Li3" transform="translate(0, -120)"><rect class="box" fill="#AD8516" height="40" stroke="black" stroke-width="0" width="40" x="0" y="0" /><g class="nucleide PROTON" id="Li3-0" transform="translate(0,10.0)"><rect class="main_decay_mode PROTON" fill="#AD8516" height="30.0" stroke="black" stroke-width="0" width="40" x="0" y="0" /><text class="half_life" fill="black" font-size="4" text-anchor="middle" x="20.0" y="4">p-unst</text><rect fill="none" height="30.0" stroke="black" stroke-width="0.2" width="40" x="0" y="0" /></g><text class="name" fill="black" font-size="7" text-anchor="middle" x="20.0" y="8">Li 3</text><rect class="border" fill="none" height="40" stroke="black" stroke-width="1" width="40" x="0" y="0" /></g><g class="element_box NEUTRON" id="H4" transform="translate(120, -40)"><rect class="box" fill="#869898" height="40" stroke="black" stroke-width="0" width="40" x="0" y="0" /><g class="nucleide NEUTRON" id="H4-0" transform="translate(0,10.0)"><rect class="main_decay_mode NEUTRON" fill="#869898" height="30.0" stroke="black" stroke-width="0" width="40" x="0" y="0" /><text class="half_life" fill="black" font-size="4" text-anchor="middle" x="20.0" y="4">139 ys</text><rect fill="none" height="30.0" stroke="black" stroke-width="0.2" width="40" x="0" y="0" /></g><text class="name" fill="black" font-size="7" text-anchor="middle" x="20.0" y="8">H 4</text><rect class="border" fill="none" height="40" stroke="black" stroke-width="1" width="40" x="0" y="0" /></g><g class="element_box STABLE" id="He4" transform="translate(80, -80)"><rect class="box" fill="black" height="40" stroke="black" stroke-width="0" width="40" x="0" y="0" /><g class="nucleide STABLE" id="He4-0" transform="translate(0,10.0)"><rect class="main_decay_mode STABLE" fill="black" height="30.0" stroke="black" stroke-width="0" width="40" x="0" y="0" /><text class="half_life" fill="white" font-size="4" text-anchor="middle" x="20.0" y="4">99.9998</text><rect fill="none" height="30.0" stroke="black" stroke-width="0.2" width="40" x="0" y="0" /></g><text class="name" fill="white" font-size="7" text-anchor="middle" x="20.0" y="8">He 4</text><rect class="border" fill="none" height="40" stroke="black" stroke-width="1" width="40" x="0" y="0" /></g><g class="element_box PROTON" id="Li4" transform="translate(40, -120)"><rect class="box" fill="#AD8516" height="40" stroke="black" stroke-width="0" width="40" x="0" y="0" /><g class="nucleide PROTON" id="Li4-0" transform="translate(0,10.0)"><rect class="main_decay_mode PROTON" fill="#AD8516" height="30.0" stroke="black" stroke-width="0" width="40" x="0" y="0" /><text class="half_life" fill="black" font-size="4" text-anchor="middle" x="20.0" y="4">91 ys</text><rect fill="none" height="30.0" stroke="black" stroke-width="0.2" width="40" x="0" y="0" /></g><text class="name" fill="black" font-size="7" text-anchor="middle" x="20.0" y="8">Li 4</text><rect class="border" fill="none" height="40" stroke="black" stroke-width="1" width="40" x="0" y="0" /></g></g></g><g id="Axis"><g id="section_0" transform="translate(120, 5180)"><text fill="darkgrey" font-size="20" font-weight="bold" text-anchor="middle" x="20.0" y="-15.0">0</text><text fill="darkgrey" font-size="20" font-weight="bold" text-anchor="middle" x="60.0" y="-15.0">1</text><text fill="darkgrey" font-size="20" font-weight="bold" text-anchor="middle" x="100.0" y="-15.0">2</text><text fill="darkgrey" font-size="20" font-weight="bold" text-anchor="middle" x="140.0" y="-15.0">3</text><text fill="darkgrey" font-size="20" font-weight="bold" text-anchor="middle" x="-20.0" y="-55.0">1</text><text fill="darkgrey" font-size="20" font-weight="bold" text-anchor="middle" x="20.0" y="-95.0">2</text><text fill="darkgrey" font-size="20" font-weight="bold" text-anchor="middle" x="-20.0" y="-135.0">3</text></g></g></g><g id="legend" transform="translate(80, 80)"><rect class="panel" fill="none" height="480" stroke="black" stroke-width="1" width="320" x="0" y="0" /><text fill="black" font-size="18" text-anchor="middle" x="160" y="40">Leyenda</text><g id="DecayModes_Legend" transform="translate(20, 60)"><g id="ALPHA" transform="translate(0, 0)"><rect class="ALPHA" fill="#B3A60A" height="40" width="40" x="0" y="0" /><text fill="black" font-size="10" text-anchor="middle" x="20.0" y="22.5">A</text><text fill="black" font-size="10" x="60" y="22.5">Alpha</text></g><g id="BETA_PLUS" transform="translate(0, 40)"><rect class="BETA_PLUS" fill="#AF5E5B" height="40" width="40" x="0" y="0" /><text fill="black" font-size="10" text-anchor="middle" x="20.0" y="22.5">B</text><text fill="black" font-size="10" x="60" y="22.5">Beta+</text></g><g id="BETA_MINUS" transform="translate(0, 80)"><rect class="BETA_MINUS" fill="#548088" height="40" width="40" x="0" y="0" /><text fill="black" font-size="10" text-anchor="middle" x="20.0" y="22.5">B</text><text fill="black" font-size="10" x="60" y="22.5">Beta-</text></g><g id="ELECTRON_CAPTURE" transform="translate(0, 120)"><rect class="ELECTRON_CAPTURE" fill="#646293" height="40" width="40" x="0" y="0" /><text fill="black" font-size="10" text-anchor="middle" x="20.0" y="22.5">E</text><text fill="black" font-size="10" x="60" y="22.5">EC</text></g><g id="PROTON" transform="translate(0, 160)"><rect class="PROTON" fill="#AD8516" height="40" width="40" x="0" y="0" /><text fill="black" font-size="10" text-anchor="middle" x="20.0" y="22.5">P</text><text fill="black" font-size="10" x="60" y="22.5">Proton</text></g><g id="NEUTRON" transform="translate(0, 200)"><rect class="NEUTRON" fill="#869898" height="40" width="40" x="0" y="0" /><text fill="black" font-size="10" text-anchor="middle" x="20.0" y="22.5">N</text><text fill="black" font-size="10" x="60" y="22.5">Neutron</text></g><g id="SF" transform="translate(0, 240)"><rect class="SF" fill="#295F2D" height="40" width="40" x="0" y="0" /><text fill="black" font-size="10" text-anchor="middle" x="20.0" y="22.5">S</text><text fill="black" font-size="10" x="60" y="22.5">SF</text></g><g id="STABLE" transform="translate(0, 280)"><rect class="STABLE" fill="black" height="40" width="40" x="0" y="0" /><text fill="white" font-size="10" text-anchor="middle" x="20.0" y="22.5">S</text><text fill="black" font-size="10" x="60" y="22.5">Stable</text></g><g id="IT" transform="translate(0, 320)"><rect class="IT" fill="#C1BAB4" height="40" width="40" x="0" y="0" /><text fill="black" font-size="10" text-anchor="middle" x="20.0" y="22.5">I</text><text fill="black" font-size="10" x="60" y="22.5">Isomeric Transition</text></g></g></g></svg>